Coordinates
version=1
nRows=16
nColumns=63
inDegrees=yes

Units are S.I. units (second, meters, Newtons, ...)
If the header above contains a line with 'inDegrees', this indicates whether rotational values are in degrees (yes) or radians (no).

endheader
time	pelvis_tilt	pelvis_list	pelvis_rotation	pelvis_tx	pelvis_ty	pelvis_tz	hip_flexion_r	hip_adduction_r	hip_rotation_r	knee_angle_r	knee_angle_r_beta	ankle_angle_r	subtalar_angle_r	mtp_angle_r	hip_flexion_l	hip_adduction_l	hip_rotation_l	knee_angle_l	knee_angle_l_beta	ankle_angle_l	subtalar_angle_l	mtp_angle_l	L5_S1_Flex_Ext	L5_S1_Lat_Bending	L5_S1_axial_rotation	L4_L5_Flex_Ext	L4_L5_Lat_Bending	L4_L5_axial_rotation	L3_L4_Flex_Ext	L3_L4_Lat_Bending	L3_L4_axial_rotation	L2_L3_Flex_Ext	L2_L3_Lat_Bending	L2_L3_axial_rotation	L1_L2_Flex_Ext	L1_L2_Lat_Bending	L1_L2_axial_rotation	L1_T12_Flex_Ext	L1_T12_Lat_Bending	L1_T12_axial_rotation	Abs_r3	Abs_r2	Abs_r1	Abs_t1	Abs_t2	neck_flexion	neck_bending	neck_rotation	arm_flex_r	arm_add_r	arm_rot_r	elbow_flex_r	pro_sup_r	wrist_flex_r	wrist_dev_r	arm_flex_l	arm_add_l	arm_rot_l	elbow_flex_l	pro_sup_l	wrist_flex_l	wrist_dev_l
0.000000	1.864149	-3.428291	95.939651	0.182579	0.998426	0.165725	5.032866	-1.828146	-25.382418	19.062220	0.332698	28.037151	18.809164	0.000000	3.753261	-2.291165	-14.336905	11.948459	0.208540	29.434020	13.747121	0.000000	0.242295	0.200315	-0.436111	0.449967	0.266419	-0.463367	0.398067	0.487046	-0.463367	0.276919	0.487046	-0.381597	0.224995	0.408483	-0.354340	0.138448	0.310288	-0.327083	1.730691	2.266004	-2.425516	0.000000	0.000000	18.768432	1.887414	-4.611160	21.921265	-19.956038	63.705922	66.647113	28.409059	-5.285738	-4.409613	28.150073	-8.213514	58.536322	58.812560	87.862228	4.745431	10.038884
0.016949	1.813929	-3.624052	95.543310	0.183476	0.997348	0.167539	5.593296	-1.902828	-24.982526	19.230138	0.335629	28.180683	18.763670	0.000000	4.132717	-2.251816	-14.403239	12.184796	0.212665	29.940391	13.071013	0.000000	0.246872	0.203420	-0.398590	0.458465	0.270549	-0.423502	0.405585	0.494595	-0.423502	0.282149	0.494595	-0.348766	0.229245	0.414814	-0.323854	0.141062	0.315098	-0.298943	1.763379	2.301128	-2.216839	0.000000	0.000000	19.157436	1.848497	-3.789352	22.439131	-19.567332	62.990497	66.834389	30.380928	-4.487494	1.372762	27.894171	-8.770914	57.612504	59.849706	87.931336	5.528673	10.994951
0.033898	1.780721	-3.764558	95.223177	0.184168	0.996537	0.169001	6.027403	-1.951721	-24.651710	19.357484	0.337852	28.324768	18.722334	0.000000	4.422295	-2.230109	-14.473633	12.382005	0.216107	30.303860	12.523222	0.000000	0.249451	0.205991	-0.356098	0.463256	0.273968	-0.378354	0.409824	0.500847	-0.378354	0.285098	0.500847	-0.311586	0.231641	0.420057	-0.289330	0.142537	0.319080	-0.267074	1.781807	2.330212	-1.980511	0.000000	0.000000	19.493738	1.830129	-3.242642	22.806996	-19.265952	62.368710	66.914033	31.766980	-3.662920	5.934558	27.844654	-9.145653	57.050212	60.534556	88.021728	6.212454	11.723109
0.050847	1.762824	-3.855244	94.973061	0.184671	0.995964	0.170136	6.346655	-1.977790	-24.384507	19.448361	0.339438	28.468086	18.685025	0.000000	4.629842	-2.223681	-14.545088	12.542545	0.218909	30.538965	12.090827	0.000000	0.250279	0.208191	-0.309924	0.464794	0.276894	-0.329295	0.411184	0.506195	-0.329295	0.286044	0.506195	-0.271184	0.232409	0.424543	-0.251814	0.143010	0.322488	-0.232443	1.787720	2.355097	-1.723707	0.000000	0.000000	19.780810	1.828864	-2.936947	23.040983	-19.046838	61.839444	66.903442	32.653789	-2.822300	9.366483	27.960601	-9.361007	56.789879	60.918367	88.126264	6.804723	12.244246
0.067797	1.758538	-3.901543	94.786769	0.185000	0.995602	0.170972	6.562519	-1.984001	-24.175451	19.506872	0.340459	28.609315	18.651613	0.000000	4.763208	-2.230174	-14.614606	12.668877	0.221114	30.660245	11.760907	0.000000	0.249600	0.210182	-0.261359	0.463531	0.279542	-0.277694	0.410067	0.511037	-0.277694	0.285267	0.511037	-0.228689	0.231778	0.428604	-0.212354	0.142621	0.325572	-0.196019	1.782865	2.377624	-1.453601	0.000000	0.000000	20.022125	1.841258	-2.838181	23.157216	-18.904927	61.401582	66.820016	33.127930	-1.975917	11.759244	28.201091	-9.440255	56.771934	61.052394	88.237800	7.313428	12.579253
0.084746	1.766163	-3.908890	94.658109	0.185170	0.995422	0.171538	6.686463	-1.973319	-24.019077	19.537119	0.340987	28.747135	18.621967	0.000000	4.830240	-2.247225	-14.679188	12.763461	0.222764	30.682238	11.520541	0.000000	0.247656	0.212128	-0.211692	0.459923	0.282130	-0.224923	0.406875	0.515768	-0.224923	0.283046	0.515768	-0.185230	0.229974	0.432571	-0.172000	0.141511	0.328586	-0.158769	1.768985	2.399634	-1.177367	0.000000	0.000000	20.221157	1.863867	-2.912260	23.171820	-18.835157	61.054005	66.681152	33.275977	-1.134056	13.203548	28.525205	-9.406674	56.936810	60.987894	88.349195	7.746515	12.749019
0.101695	1.783996	-3.882717	94.580889	0.185198	0.995397	0.171860	6.729954	-1.948710	-23.909921	19.543206	0.341093	28.880223	18.595956	0.000000	4.838789	-2.272473	-14.735836	12.828760	0.223904	30.619482	11.356808	0.000000	0.244694	0.214191	-0.162213	0.454422	0.284874	-0.172351	0.402008	0.520783	-0.172351	0.279661	0.520783	-0.141936	0.227223	0.436778	-0.131798	0.139818	0.331781	-0.121660	1.747826	2.422968	-0.902180	0.000000	0.000000	20.381379	1.893247	-3.125098	23.100919	-18.832467	60.795598	66.504249	33.184504	-0.306998	13.790105	28.892023	-9.283542	57.224936	60.776124	88.453307	8.111933	12.774434
0.118644	1.810339	-3.828460	94.548916	0.185097	0.995496	0.171965	6.704461	-1.913140	-23.842517	19.529236	0.340849	29.007258	18.573451	0.000000	4.796701	-2.303559	-14.781552	12.867232	0.224576	30.486516	11.256788	0.000000	0.240957	0.216533	-0.114212	0.447482	0.287989	-0.121351	0.395869	0.526479	-0.121351	0.275390	0.526479	-0.099936	0.223753	0.441555	-0.092798	0.137683	0.335410	-0.085659	1.721135	2.449467	-0.635215	0.000000	0.000000	20.506263	1.925953	-3.442611	22.960637	-18.891795	60.625241	66.306706	32.940086	0.494971	13.609621	29.260624	-9.094137	57.576744	60.468340	88.542993	8.417629	12.676388
0.135593	1.843490	-3.751550	94.555998	0.184885	0.995694	0.171881	6.621450	-1.869573	-23.811401	19.499312	0.340327	29.126920	18.554320	0.000000	4.711827	-2.338120	-14.813337	12.881339	0.224822	30.297879	11.207559	0.000000	0.236690	0.219318	-0.068980	0.439558	0.291693	-0.073291	0.388859	0.533250	-0.073291	0.270513	0.533250	-0.060358	0.219791	0.447234	-0.056046	0.135245	0.339724	-0.051735	1.690655	2.480972	-0.383646	0.000000	0.000000	20.599282	1.958541	-3.830714	22.767098	-19.008079	60.541818	66.105921	32.629297	1.261570	12.752805	29.590088	-8.861737	57.932664	60.115799	88.611112	8.671551	12.475771
0.152542	1.881748	-3.657424	94.595944	0.184575	0.995961	0.171636	6.492391	-1.820975	-23.811107	19.457536	0.339598	29.237886	18.538433	0.000000	4.592014	-2.373797	-14.828193	12.873542	0.224686	30.068108	11.196202	0.000000	0.232137	0.222708	-0.027806	0.431102	0.296202	-0.029544	0.381378	0.541493	-0.029544	0.265310	0.541493	-0.024330	0.215563	0.454147	-0.022592	0.132643	0.344975	-0.020854	1.658133	2.519322	-0.154647	0.000000	0.000000	20.663910	1.987568	-4.255322	22.536425	-19.176256	60.544211	65.919293	32.338712	1.982513	11.310364	29.839495	-8.609619	58.233127	59.769756	88.650521	8.881646	12.193471
0.169492	1.923414	-3.551513	94.662560	0.184183	0.996268	0.171256	6.328750	-1.770312	-23.836170	19.408011	0.338734	29.338836	18.525660	0.000000	4.445111	-2.408227	-14.823121	12.846301	0.224210	29.811743	11.209794	0.000000	0.227543	0.226867	0.008020	0.422569	0.301733	0.008522	0.373830	0.551603	0.008522	0.260058	0.551603	0.007018	0.211296	0.462626	0.006516	0.130018	0.351416	0.006015	1.625314	2.566360	0.044606	0.000000	0.000000	20.703619	2.009588	-4.682350	22.284744	-19.391267	60.631303	65.764220	32.154905	2.647519	9.373005	29.967925	-8.361061	58.418564	59.481468	88.654079	9.055861	11.850380
0.186441	1.964197	-3.458158	94.755859	0.183691	0.996514	0.170701	6.159913	-1.729166	-23.881965	19.359535	0.337888	29.430079	18.510650	0.000000	4.286546	-2.424847	-14.751409	12.776037	0.222984	29.611011	11.231001	0.000000	0.225421	0.233274	0.025826	0.418628	0.310255	0.027440	0.370343	0.567183	0.027440	0.257633	0.567183	0.022598	0.209326	0.475693	0.020984	0.128805	0.361342	0.019370	1.610156	2.638846	0.143638	0.000000	0.000000	20.792558	2.034086	-4.936877	22.120860	-19.631365	60.870736	65.624326	32.737508	3.087110	6.977839	29.700526	-8.122824	58.033967	59.476435	88.501761	9.168146	11.685265
0.203390	2.011614	-3.346862	94.894891	0.183146	0.996721	0.170064	5.948576	-1.684192	-23.996934	19.299646	0.336842	29.492793	18.511120	0.000000	4.108294	-2.453503	-14.674493	12.714222	0.221905	29.413018	11.293163	0.000000	0.222397	0.240723	0.027004	0.413014	0.320162	0.028691	0.365376	0.585294	0.028691	0.254178	0.585294	0.023628	0.206518	0.490882	0.021940	0.127078	0.372880	0.020253	1.588560	2.723106	0.150185	0.000000	0.000000	20.811580	2.029129	-5.167064	22.121039	-19.901160	61.514787	65.480291	33.529171	3.266615	3.700754	29.230133	-7.924699	57.405844	59.632177	88.196101	9.368051	11.654782
0.220339	2.069473	-3.241242	95.020613	0.182556	0.996867	0.169415	5.751851	-1.638661	-24.106171	19.261121	0.336170	29.520694	18.511064	0.000000	3.920551	-2.483894	-14.593018	12.630790	0.220449	29.198101	11.325463	0.000000	0.219626	0.252768	0.015446	0.407867	0.336181	0.016411	0.360823	0.614580	0.016411	0.251010	0.614580	0.013515	0.203944	0.515444	0.012550	0.125494	0.391537	0.011585	1.568764	2.859360	0.085906	0.000000	0.000000	20.821655	2.010128	-5.151212	22.195808	-20.194844	62.283132	65.432237	34.457029	3.424467	0.407591	28.482815	-7.779515	56.393634	59.951767	87.893824	9.764271	11.561493
0.237288	2.125811	-3.152990	95.131552	0.181960	0.996943	0.168810	5.583504	-1.600557	-24.194863	19.233361	0.335685	29.531144	18.515184	0.000000	3.750078	-2.496053	-14.412247	12.540704	0.218877	28.976111	11.202612	0.000000	0.218191	0.266190	0.003529	0.405203	0.354033	0.003749	0.358466	0.647215	0.003749	0.249371	0.647215	0.003088	0.202612	0.542815	0.002867	0.124674	0.412328	0.002647	1.558518	3.011195	0.019626	0.000000	0.000000	20.825669	1.947270	-5.071557	22.189302	-20.503421	62.958430	65.520783	35.661218	3.635511	-2.856615	27.581797	-7.745736	55.287347	60.418784	87.618586	10.114441	11.201294
0.254237	2.175253	-3.082734	95.211563	0.181365	0.996944	0.168295	5.460003	-1.579633	-24.245610	19.233992	0.335696	29.536893	18.517316	0.000000	3.598013	-2.484221	-14.158482	12.441366	0.217143	28.776161	10.948917	0.000000	0.217174	0.281509	-0.010145	0.403314	0.374407	-0.010779	0.356795	0.684460	-0.010779	0.248208	0.684460	-0.008877	0.201668	0.574053	-0.008243	0.124093	0.436057	-0.007608	1.551252	3.184483	-0.056421	0.000000	0.000000	20.830001	1.849999	-4.838350	22.093234	-20.834801	63.518398	65.804106	36.907385	3.841685	-5.631478	26.494226	-7.876351	54.027598	61.097350	87.390487	10.423222	10.595270
